<?xml version="1.0" standalone="no"?>
<!DOCTYPE svg PUBLIC "-//W3C//DTD SVG 20010904//EN"
 "http://www.w3.org/TR/2001/REC-SVG-20010904/DTD/svg10.dtd">
<svg version="1.0" xmlns="http://www.w3.org/2000/svg"
 width="512.000000pt" height="512.000000pt" viewBox="0 0 512.000000 512.000000"
 preserveAspectRatio="xMidYMid meet">
<metadata>
Created by potrace 1.11, written by Peter Selinger 2001-2013
</metadata>
<g transform="translate(0.000000,512.000000) scale(0.100000,-0.100000)"
fill="#000000" stroke="none">
<path d="M2587 4354 c-1 -1 -42 -4 -90 -5 -49 -1 -107 -5 -130 -9 -23 -5 -62
-10 -87 -13 -123 -15 -318 -74 -454 -137 -358 -167 -686 -493 -850 -845 -71
-152 -130 -349 -151 -510 -11 -78 -14 -436 -4 -491 44 -264 72 -366 142 -519
88 -195 191 -341 351 -500 204 -204 391 -324 637 -410 57 -20 111 -38 119 -40
8 -2 44 -10 80 -19 36 -8 90 -18 120 -22 30 -3 78 -10 105 -14 53 -9 413 -6
455 3 14 3 45 8 70 11 143 16 341 76 490 149 460 224 771 650 905 1240 13 59
27 129 31 155 3 26 10 65 14 86 5 22 7 43 4 47 -2 4 -43 8 -91 8 -49 1 -151 4
-228 6 -265 7 -660 17 -694 18 -27 1 -35 -3 -37 -18 -1 -11 -6 -40 -9 -65 -13
-90 -47 -197 -91 -289 -113 -234 -335 -362 -625 -362 -213 0 -379 68 -518 211
-75 77 -115 140 -156 245 -40 103 -50 163 -49 315 0 118 4 159 22 222 65 231
194 390 399 492 78 39 169 59 288 61 250 5 430 -77 565 -261 41 -54 96 -159
125 -238 l19 -49 120 7 c67 4 144 9 171 11 28 2 91 6 140 10 50 3 122 7 160
10 39 3 102 7 140 9 39 3 113 8 165 12 52 3 112 7 132 8 21 1 40 4 42 7 6 6
-32 155 -63 245 -154 454 -381 754 -746 981 -163 102 -414 195 -590 219 -16 2
-43 7 -60 9 -54 10 -282 24 -288 19z"/>
</g>
</svg>
